<?xml version="1.0" standalone="no"?>
<!DOCTYPE svg PUBLIC "-//W3C//DTD SVG 20010904//EN"
 "http://www.w3.org/TR/2001/REC-SVG-20010904/DTD/svg10.dtd">
<svg version="1.0" xmlns="http://www.w3.org/2000/svg"
 width="500.000000pt" height="500.000000pt" viewBox="0 0 500.000000 500.000000"
 preserveAspectRatio="xMidYMid meet">
<metadata>
Created by potrace 1.11, written by Peter Selinger 2001-2013
</metadata>
<g transform="translate(0.000000,500.000000) scale(0.100000,-0.100000)"
fill="#000000" stroke="none">
<path d="M2617 4603 c-2 -2 -28 -5 -58 -8 -30 -2 -65 -6 -79 -9 -14 -2 -50 -7
-80 -11 -30 -3 -58 -9 -63 -12 -4 -3 -18 -6 -30 -8 -23 -4 -58 -12 -67 -15 -3
-1 -9 -2 -14 -1 -4 1 -14 -4 -22 -10 -8 -6 -14 -9 -14 -6 0 4 -18 0 -39 -8
-22 -7 -42 -11 -45 -8 -3 4 -6 1 -6 -6 0 -7 -4 -10 -10 -6 -5 3 -17 1 -27 -5
-16 -9 -68 -31 -83 -35 -29 -7 -80 -31 -80 -37 0 -4 -7 -5 -15 -2 -8 4 -15 1
-15 -6 0 -6 -4 -9 -9 -5 -5 3 -17 -2 -25 -11 -9 -8 -16 -13 -16 -10 0 4 -19
-4 -42 -16 -24 -12 -45 -22 -48 -23 -14 -2 -76 -39 -82 -49 -4 -6 -8 -7 -8 -2
0 6 -7 1 -16 -10 -8 -10 -13 -12 -9 -4 6 13 5 13 -7 0 -7 -8 -20 -16 -28 -18
-8 -2 -21 -10 -27 -19 -7 -9 -13 -14 -13 -10 0 4 -13 1 -30 -8 -16 -9 -30 -20
-30 -26 0 -6 -4 -7 -10 -4 -5 3 -10 1 -10 -5 0 -6 -4 -9 -9 -5 -5 3 -16 -4
-24 -15 -7 -11 -17 -17 -20 -13 -4 3 -7 1 -7 -6 0 -7 -4 -10 -8 -7 -5 3 -18
-4 -30 -14 -12 -11 -25 -20 -30 -20 -5 0 -21 -11 -35 -24 -14 -13 -27 -22 -29
-20 -2 2 -19 -10 -37 -26 -18 -17 -36 -30 -40 -30 -5 0 -20 -11 -35 -25 -15
-14 -29 -25 -31 -25 -4 0 -45 -34 -76 -62 -10 -10 -22 -19 -26 -20 -5 -2 -7
-7 -5 -11 1 -5 -2 -6 -7 -3 -5 4 -17 -4 -25 -16 -9 -12 -16 -18 -16 -13 0 5
-14 -7 -31 -26 -18 -19 -28 -27 -24 -19 8 13 6 13 -8 1 -9 -7 -14 -18 -10 -24
3 -6 1 -7 -5 -3 -6 3 -15 -2 -21 -11 -6 -10 -11 -15 -11 -11 0 4 -16 -8 -35
-27 -19 -19 -39 -35 -45 -35 -6 0 -8 -4 -5 -10 3 -5 -1 -10 -10 -10 -8 0 -19
-9 -23 -21 -5 -11 -12 -21 -17 -22 -6 -1 -9 -5 -7 -10 1 -4 -4 -6 -10 -5 -7 2
-12 -3 -10 -10 1 -6 -2 -11 -7 -10 -5 2 -24 -13 -42 -32 -17 -19 -28 -28 -24
-20 5 8 -8 -3 -28 -24 -20 -22 -37 -44 -37 -49 0 -4 -3 -6 -7 -4 -5 2 -19 -8
-33 -21 -14 -14 -18 -22 -10 -18 8 4 6 0 -4 -8 -11 -9 -16 -16 -12 -16 4 0 0
-7 -8 -16 -14 -13 -18 -28 -15 -50 0 -4 -4 -10 -9 -13 -14 -9 -52 -92 -39 -84
7 3 3 -3 -7 -15 -11 -12 -16 -25 -13 -29 4 -3 2 -11 -3 -18 -9 -10 -59 -135
-64 -160 -2 -5 -13 -43 -25 -83 -12 -41 -23 -82 -24 -93 -1 -10 -5 -19 -10
-19 -5 0 -7 -9 -4 -20 3 -11 1 -20 -4 -20 -5 0 -8 -3 -7 -7 1 -5 -2 -24 -6
-43 -4 -19 -8 -42 -10 -50 -2 -8 -6 -31 -10 -50 -20 -104 -26 -313 -12 -400 5
-25 9 -54 11 -65 1 -11 4 -21 5 -22 1 -2 3 -7 4 -12 0 -5 4 -12 8 -16 4 -4 4
-13 1 -21 -3 -8 0 -14 7 -14 6 0 9 -4 5 -9 -3 -5 -1 -12 5 -16 6 -4 8 -11 5
-16 -4 -5 -2 -9 3 -9 6 0 13 -11 16 -25 4 -14 11 -25 17 -25 6 0 8 -4 5 -8 -3
-5 3 -18 12 -28 10 -10 19 -23 20 -29 3 -18 36 -75 44 -75 4 0 5 -7 2 -15 -4
-8 -1 -15 5 -15 6 0 11 -7 11 -15 0 -8 4 -15 10 -15 5 0 9 -3 8 -7 -4 -15 13
-53 23 -53 6 0 8 -4 4 -9 -3 -5 2 -16 10 -25 9 -8 16 -18 16 -20 2 -23 13 -46
21 -46 5 0 7 -4 3 -9 -3 -6 3 -14 12 -20 10 -6 14 -11 10 -11 -10 0 40 -97 67
-129 12 -13 15 -21 7 -16 -15 8 17 -45 34 -57 5 -4 6 -8 1 -8 -5 0 1 -12 15
-27 13 -14 18 -23 11 -19 -7 4 1 -13 18 -37 16 -25 30 -48 30 -52 0 -4 10 -16
23 -27 12 -11 15 -16 7 -12 -8 5 -2 -10 15 -32 16 -21 33 -41 37 -42 5 -2 6
-8 2 -13 -3 -5 0 -9 5 -9 6 0 11 -5 11 -11 0 -11 24 -45 66 -94 11 -13 29 -37
40 -51 10 -15 36 -45 56 -67 21 -21 38 -42 38 -46 0 -4 11 -14 25 -21 13 -7
22 -17 19 -22 -3 -4 2 -8 10 -8 9 0 16 -4 16 -8 0 -7 89 -86 135 -120 6 -4 19
-14 30 -22 17 -13 18 -13 11 0 -6 13 -5 13 6 0 21 -25 82 -66 74 -49 -6 11 -5
11 6 -1 18 -21 81 -53 72 -37 -4 7 1 6 12 -3 34 -26 65 -41 74 -35 6 4 10 1
10 -6 0 -7 3 -9 6 -6 4 3 15 2 25 -3 10 -6 29 -11 43 -12 15 -1 26 -5 26 -9 0
-3 6 -6 13 -7 12 -1 48 -7 112 -17 118 -19 407 -25 550 -12 131 13 222 24 255
33 14 3 32 6 40 6 19 1 110 18 180 34 14 3 41 8 60 11 19 3 42 9 50 13 8 4 23
6 33 5 9 -2 17 1 17 6 0 6 5 7 10 4 6 -4 17 -1 25 5 8 7 15 10 15 7 0 -5 59 9
115 27 6 2 12 4 15 4 3 1 28 9 55 17 28 9 61 18 75 21 13 3 28 11 32 17 4 7 8
9 8 4 0 -4 17 0 38 8 20 9 38 16 39 16 3 -1 28 7 51 16 9 3 24 7 32 9 8 2 16
7 18 13 2 5 10 7 18 4 8 -3 14 -1 14 4 0 5 6 10 14 10 8 0 29 7 47 15 88 41
129 58 138 58 6 0 11 5 11 11 0 5 4 8 9 4 5 -3 15 0 23 7 7 7 20 14 28 16 8 2
23 10 32 19 9 8 21 12 26 9 5 -3 18 2 28 12 11 9 26 18 34 20 8 2 20 8 25 15
6 7 17 13 25 15 8 2 20 10 26 17 6 8 13 12 16 10 3 -3 20 6 39 20 19 13 44 29
55 34 12 5 29 20 38 33 9 12 16 18 16 13 0 -6 10 1 21 15 11 14 17 18 13 10
-4 -8 18 10 49 40 31 30 57 60 57 67 0 6 5 15 12 19 7 5 9 2 4 -7 -4 -8 -1 -5
8 6 24 32 29 38 59 73 15 19 24 39 21 44 -4 6 -2 8 3 5 10 -6 22 9 19 25 0 3
8 17 20 30 29 32 56 78 47 78 -5 0 -3 4 2 8 15 11 47 72 38 72 -4 0 -3 4 2 8
11 8 42 61 45 77 1 6 7 21 13 35 6 14 11 27 11 30 1 3 5 11 9 17 5 7 10 21 12
30 7 40 10 48 18 54 5 4 10 18 10 33 1 14 6 26 11 26 5 0 7 3 4 6 -4 3 0 21 8
40 8 19 12 39 9 44 -3 5 0 12 6 15 5 4 8 13 5 21 -3 8 -2 14 3 14 5 0 12 24
16 53 5 28 10 59 12 67 39 192 48 504 19 660 -8 45 -17 94 -20 120 -2 14 -9
48 -16 75 -6 28 -13 57 -15 65 -2 8 -4 16 -5 18 -3 3 -5 11 -14 55 -5 20 -12
37 -18 37 -5 0 -7 4 -3 9 3 5 1 12 -4 16 -6 3 -8 12 -4 20 3 8 0 15 -6 15 -6
0 -10 3 -9 8 4 13 -14 56 -31 76 -9 11 -11 17 -5 13 7 -4 5 8 -4 28 -9 19 -20
35 -24 35 -4 0 -8 9 -8 20 0 11 -5 20 -10 20 -6 0 -9 3 -8 8 4 11 -26 72 -34
72 -5 0 -8 7 -8 15 0 8 -5 15 -11 15 -5 0 -8 4 -4 9 3 5 -2 16 -10 24 -8 9
-15 18 -15 21 0 13 -73 116 -82 116 -5 0 -6 5 -3 10 3 6 1 10 -4 10 -6 0 -11
7 -11 16 0 8 -4 12 -10 9 -5 -3 -10 0 -10 8 0 8 -8 23 -17 34 -10 10 -14 12
-8 3 8 -13 7 -13 -5 -2 -8 7 -16 17 -16 23 -1 5 -2 14 -3 19 0 6 -7 10 -15 10
-8 0 -18 5 -22 12 -5 7 -2 9 7 4 8 -4 6 -1 -3 7 -10 8 -18 17 -18 21 0 3 -58
65 -130 138 -71 72 -130 128 -130 125 0 -2 -17 12 -38 32 -21 20 -51 45 -67
56 -16 11 -41 31 -57 43 -15 13 -28 20 -28 15 0 -4 -5 0 -11 10 -5 9 -17 17
-24 17 -8 0 -15 5 -15 10 0 6 -5 10 -11 10 -6 0 -17 7 -26 15 -8 8 -18 13 -23
10 -4 -3 -10 1 -13 9 -5 14 -259 143 -294 150 -10 1 -29 8 -43 13 -14 6 -28 9
-32 6 -5 -2 -8 1 -8 8 0 7 -3 9 -7 6 -3 -4 -12 -2 -20 4 -7 6 -13 8 -13 4 0
-4 -7 -2 -15 5 -8 6 -19 9 -24 6 -5 -4 -12 -2 -16 3 -3 5 -14 8 -25 6 -11 -2
-20 0 -20 5 0 5 -8 9 -17 9 -10 0 -29 2 -43 5 -25 5 -81 14 -135 22 -38 6
-284 12 -288 7z m1264 -450 c13 -16 12 -17 -3 -4 -17 13 -22 21 -14 21 2 0 10
-8 17 -17z m-976 -385 c11 -2 23 -6 26 -10 3 -5 17 -9 32 -10 15 -1 27 -6 27
-10 0 -4 7 -8 15 -8 8 0 34 -11 58 -25 25 -13 48 -21 52 -17 3 4 5 2 3 -5 -1
-6 -1 -10 2 -10 3 1 20 -12 39 -28 18 -17 37 -29 42 -27 5 1 8 -4 7 -10 -2 -7
3 -12 10 -10 6 1 11 -2 10 -7 -2 -5 12 -25 30 -44 17 -20 32 -41 32 -47 0 -5
5 -10 10 -10 6 0 10 -7 10 -16 0 -9 5 -12 13 -8 6 4 9 4 5 -1 -4 -4 3 -26 14
-49 12 -22 23 -45 24 -51 1 -5 8 -23 15 -40 7 -16 11 -34 10 -39 -1 -4 3 -14
9 -20 5 -7 7 -16 4 -19 -3 -3 -3 -11 2 -18 10 -17 17 -81 17 -174 0 -94 -7
-153 -26 -217 -8 -26 -12 -49 -9 -52 3 -4 0 -6 -7 -6 -7 0 -10 -4 -6 -9 3 -5
1 -12 -5 -16 -6 -4 -8 -11 -5 -16 4 -5 1 -9 -6 -9 -7 0 -9 -3 -6 -7 4 -3 2
-12 -4 -20 -6 -7 -8 -13 -5 -13 4 0 0 -7 -8 -16 -9 -8 -14 -20 -11 -25 4 -5 2
-9 -3 -9 -5 0 -15 -12 -22 -27 -8 -16 -33 -56 -57 -89 -23 -34 -39 -64 -36
-68 4 -3 -1 -6 -10 -6 -8 0 -25 -14 -37 -31 -25 -34 -74 -82 -122 -119 -18
-14 -40 -33 -50 -42 -10 -10 -20 -17 -22 -15 -3 1 -16 -8 -30 -20 -14 -13 -26
-20 -26 -17 0 3 -12 -3 -27 -14 -24 -16 -48 -28 -73 -37 -3 -1 -23 -10 -44
-19 -38 -17 -61 -24 -96 -30 -8 -1 -26 -6 -40 -10 -22 -6 -50 -10 -97 -15 -6
0 -12 -9 -12 -18 1 -83 -16 -335 -28 -408 -3 -22 -7 -53 -9 -70 -5 -49 -26
-129 -36 -142 -5 -7 -7 -17 -3 -23 3 -5 1 -10 -5 -10 -7 0 -10 -6 -7 -14 3 -8
2 -16 -3 -18 -5 -2 -10 -10 -12 -18 -2 -8 -9 -21 -16 -28 -7 -8 -10 -18 -6
-23 3 -5 0 -8 -8 -7 -7 2 -12 -3 -10 -9 1 -7 -3 -13 -9 -13 -5 0 -7 -5 -3 -12
4 -6 3 -8 -4 -4 -6 3 -20 -6 -31 -20 -12 -15 -21 -24 -21 -20 0 4 -12 0 -27
-7 -16 -8 -36 -13 -45 -12 -10 2 -18 0 -18 -5 0 -9 -48 -4 -83 9 -15 6 -27 8
-27 5 0 -2 -18 13 -40 34 -21 22 -42 37 -45 33 -4 -3 -6 -1 -5 4 5 22 -1 36
-12 29 -6 -4 -8 -3 -4 4 3 6 2 13 -4 17 -5 3 -10 15 -10 26 0 10 -4 19 -8 19
-4 0 -9 12 -10 26 -1 14 -5 31 -9 37 -8 14 -12 27 -18 77 -3 19 -7 51 -10 70
-14 97 -17 241 -17 750 0 596 8 901 27 1060 4 36 9 73 10 82 1 10 5 21 10 25
4 5 5 1 1 -7 -5 -9 -2 -8 7 3 8 9 19 17 26 17 6 0 11 4 11 8 0 7 39 31 60 37
22 6 60 30 60 37 0 5 4 7 9 3 5 -3 17 2 25 11 9 8 16 13 16 10 0 -3 19 4 42
16 24 13 50 24 58 25 8 1 16 7 18 13 2 5 8 8 12 5 5 -3 24 1 42 9 49 21 70 29
98 33 14 2 27 8 28 14 2 5 7 7 11 4 5 -2 23 0 42 6 19 5 49 12 67 14 19 2 35
5 37 7 5 4 238 1 270 -4z"/>
<path d="M2665 3128 c-16 -5 -37 -11 -46 -13 -10 -2 -42 -15 -73 -30 -55 -26
-56 -27 -51 -63 9 -66 18 -215 18 -304 0 -89 4 -98 29 -75 7 6 20 13 28 15 8
2 20 10 27 18 6 9 14 15 17 15 21 -3 26 0 20 11 -4 7 -3 8 5 4 23 -14 184 132
193 175 2 8 7 17 12 21 15 10 12 138 -3 148 -8 4 -11 12 -8 17 4 6 -6 22 -22
37 -30 29 -94 40 -146 24z"/>
</g>
</svg>
